<svg xmlns="http://www.w3.org/2000/svg" xmlns:xlink="http://www.w3.org/1999/xlink" viewBox="0,0,256,256" width="24px" height="24px" fill-rule="nonzero"><g transform="translate(38.4,38.4) scale(0.7,0.7)"><g fill-opacity="0.83922" fill="#0aa0e7" fill-rule="nonzero" stroke="none" stroke-width="1" stroke-linecap="butt" stroke-linejoin="miter" stroke-miterlimit="10" stroke-dasharray="" stroke-dashoffset="0" font-family="none" font-weight="none" font-size="none" text-anchor="none" style="mix-blend-mode: normal"><path d="M31.45143,288.91429c-35.5482,0 -64.36571,-28.81751 -64.36571,-64.36571v-193.09714c0,-35.5482 28.81751,-64.36571 64.36571,-64.36571h193.09714c35.5482,0 64.36571,28.81751 64.36571,64.36571v193.09714c0,35.5482 -28.81751,64.36571 -64.36571,64.36571z" id="shape"></path></g><g fill="#000000" fill-rule="nonzero" stroke="none" stroke-width="1" stroke-linecap="butt" stroke-linejoin="miter" stroke-miterlimit="10" stroke-dasharray="" stroke-dashoffset="0" font-family="none" font-weight="none" font-size="none" text-anchor="none" style="mix-blend-mode: normal"><g transform="scale(10.66667,10.66667)"><path d="M12,2c-1.105,0 -2,0.895 -2,2v1c0,1.105 0.895,2 2,2c1.105,0 2,-0.895 2,-2v-1c0,-1.105 -0.895,-2 -2,-2zM5,4c-1.105,0 -2,0.895 -2,2v1c0,1.105 0.895,2 2,2c1.105,0 2,-0.895 2,-2v-1c0,-1.105 -0.895,-2 -2,-2zM19,4c-1.105,0 -2,0.895 -2,2v1c0,1.105 0.895,2 2,2c1.105,0 2,-0.895 2,-2v-1c0,-1.105 -0.895,-2 -2,-2zM11.25,9c-1.4899,0 -2.74814,0.82679 -3.50781,2h-2.49219c-2.33242,0 -4.25,1.91758 -4.25,4.25v3.5c0,1.22833 1.02167,2.25 2.25,2.25h4.5c0.08652,0.00113 0.17292,-0.00672 0.25781,-0.02344c0.07977,0.01567 0.16089,0.02352 0.24219,0.02344h7.5c0.08202,-0.00043 0.16379,-0.00894 0.24414,-0.02539c0.08419,0.01723 0.16993,0.02574 0.25586,0.02539h4.5c1.22833,0 2.25,-1.02167 2.25,-2.25v-3.5c0,-2.33242 -1.91758,-4.25 -4.25,-4.25h-2.49219c-0.75968,-1.17321 -2.01791,-2 -3.50781,-2zM11.25,11.5h1.5c0.98158,0 1.75,0.76842 1.75,1.75v5.25h-5v-5.25c0,-0.98158 0.76842,-1.75 1.75,-1.75zM5.25,13.5h1.75v5h-3.5v-3.25c0,-0.98158 0.76842,-1.75 1.75,-1.75zM17,13.5h1.75c0.98158,0 1.75,0.76842 1.75,1.75v3.25h-3.5z"></path></g></g></g></svg>